/* XPM */
static char *result[] = {
/* columns rows colors chars-per-pixel */
"15 15 2 1 ",
"  c black",
". c None",
/* pixels */
"............ ..",
"....  .....   .",
"...   ....    .",
"...    ..    ..",
"....        ...",
"....        ...",
".....      ....",
".....     .....",
".....      ....",
"....       ....",
"...         ...",
"..     .     ..",
"..    ...   ...",
"..   .... .....",
"...  .........."
};
